<?xml version="1.0" encoding="UTF-8" standalone="no"?>
<!-- Generator: Adobe Illustrator 27.1.1, SVG Export Plug-In . SVG Version: 6.00 Build 0)  -->

<svg
   version="1.1"
   x="0px"
   y="0px"
   viewBox="0 0 183.00999 170.97"
   xml:space="preserve"
   id="svg10"
   sodipodi:docname="nanopublication_logo_inkscape.svg"
   inkscape:version="1.3 (0e150ed6c4, 2023-07-21)"
   inkscape:export-filename="nanopublication_logo_inkscape.png"
   inkscape:export-xdpi="96"
   inkscape:export-ydpi="96"
   width="183.00999"
   height="170.97"
   xmlns:inkscape="http://www.inkscape.org/namespaces/inkscape"
   xmlns:sodipodi="http://sodipodi.sourceforge.net/DTD/sodipodi-0.dtd"
   xmlns="http://www.w3.org/2000/svg"
   xmlns:svg="http://www.w3.org/2000/svg"><defs
   id="defs10" /><sodipodi:namedview
   id="namedview10"
   pagecolor="#ffffff"
   bordercolor="#000000"
   borderopacity="0.25"
   inkscape:showpageshadow="2"
   inkscape:pageopacity="0.0"
   inkscape:pagecheckerboard="0"
   inkscape:deskcolor="#d1d1d1"
   showgrid="true"
   inkscape:zoom="1.7419609"
   inkscape:cx="122.85006"
   inkscape:cy="165.61795"
   inkscape:window-width="1920"
   inkscape:window-height="1163"
   inkscape:window-x="0"
   inkscape:window-y="0"
   inkscape:window-maximized="1"
   inkscape:current-layer="Text_Layer"><inkscape:grid
     id="grid10"
     units="px"
     originx="-204.50124"
     originy="-195.07001"
     spacingx="0.99999995"
     spacingy="0.99999998"
     empcolor="#0099e5"
     empopacity="0.30196078"
     color="#0099e5"
     opacity="0.14902"
     empspacing="5"
     dotted="false"
     gridanglex="30"
     gridanglez="30"
     visible="true" /></sodipodi:namedview>&#10;<style
   type="text/css"
   id="style1">&#10;	.st0{fill:#FFFFFF;stroke:#0D0607;stroke-miterlimit:10;}&#10;	.st1{fill:#9FC9EB;stroke:#F8F4F4;stroke-miterlimit:10;}&#10;	.st2{fill:#F2A08C;stroke:#F8F4F4;stroke-miterlimit:10;}&#10;	.st3{fill:#F9F06C;stroke:#F8F4F4;stroke-miterlimit:10;}&#10;	.st4{font-family:'ArialMT';}&#10;	.st5{font-size:20px;}&#10;</style>&#10;<g
   id="Logo_Layer"
   transform="translate(-195.86815,-192.32131)">&#10;	<path
   class="st0"
   d="M 358.96,358.35 H 215.83 c -8.8,0 -15.94,-7.14 -15.94,-15.94 v -130.9 c 0,-8.8 7.14,-15.94 15.94,-15.94 h 143.13 c 8.8,0 15.94,7.14 15.94,15.94 v 130.9 c 0,8.8 -7.14,15.94 -15.94,15.94 z"
   id="path1" />&#10;	<path
   class="st1"
   d="M 360.28,274.29 H 214.51 c -4.43,0 -8.02,-3.59 -8.02,-8.02 V 238.4 c 0,-4.43 3.59,-8.02 8.02,-8.02 h 145.78 c 4.43,0 8.02,3.59 8.02,8.02 v 27.87 c 0,4.43 -3.59,8.02 -8.03,8.02 z"
   id="path2" />&#10;	<path
   class="st2"
   d="M 362.14,310.44 H 212.65 c -3.41,0 -6.17,-2.76 -6.17,-6.17 V 288.9 c 0,-3.41 2.76,-6.17 6.17,-6.17 h 149.49 c 3.41,0 6.17,2.76 6.17,6.17 v 15.37 c 0,3.41 -2.76,6.17 -6.17,6.17 z"
   id="path3" />&#10;	<path
   class="st3"
   d="M 362.31,346.59 H 212.48 c -3.31,0 -6,-2.68 -6,-6 v -15.71 c 0,-3.31 2.68,-6 6,-6 h 149.83 c 3.31,0 6,2.68 6,6 v 15.71 c 0,3.32 -2.69,6 -6,6 z"
   id="path4" />&#10;	<path
   d="m 289.52,275.68 v 0 c -1.43,0.83 -3.27,0.34 -4.1,-1.1 v 0 c -0.83,-1.43 -0.34,-3.27 1.1,-4.1 v 0 c 1.43,-0.83 3.27,-0.34 4.1,1.1 v 0 c 0.83,1.44 0.34,3.27 -1.1,4.1 z"
   id="path5" />&#10;	<path
   d="m 288.02,361.04 v 0 c -1.66,0 -3,-1.34 -3,-3 v 0 c 0,-1.66 1.34,-3 3,-3 v 0 c 1.66,0 3,1.34 3,3 v 0 c 0,1.65 -1.34,3 -3,3 z"
   id="path6" />&#10;	<rect
   x="287.39001"
   y="273.07999"
   width="1.25"
   height="10.36"
   id="rect6" />&#10;	<rect
   x="287.39999"
   y="345.59"
   width="1.25"
   height="12.95"
   id="rect7" />&#10;	<g
   id="Layer_2">&#10;	</g>&#10;</g>&#10;<g
   id="Text_Layer"
   transform="translate(-204.50123,-195.07)">&#10;	<text
   class="st4 st5"
   id="text7"
   x="221.58691"
   y="222.92511"
   style="font-size:18.6667px">nanopublication </text>&#10;	<text
   class="st4 st5"
   id="text8"
   style="font-size:18.6667px"
   x="253.56491"
   y="260.20569">assertion</text>&#10;	<text
   class="st4 st5"
   id="text9"
   style="font-size:18.6667px"
   x="241.60402"
   y="305.22479">provenance</text>&#10;	<text
   class="st4 st5"
   id="text10"
   x="223.69749"
   y="340.97659"
   style="font-size:18.6667px">publication info</text>&#10;</g>&#10;</svg>
